<svg width="35" height="35" viewBox="0 0 35 35" fill="none" xmlns="http://www.w3.org/2000/svg">
<path d="M26.25 18.9554H18.9583V26.247C18.9583 26.6338 18.8046 27.0047 18.5312 27.2782C18.2577 27.5517 17.8867 27.7054 17.5 27.7054C17.1132 27.7054 16.7423 27.5517 16.4688 27.2782C16.1953 27.0047 16.0416 26.6338 16.0416 26.247V18.9554H8.74996C8.36319 18.9554 7.99225 18.8017 7.71876 18.5282C7.44527 18.2547 7.29163 17.8838 7.29163 17.497C7.29163 17.1103 7.44527 16.7393 7.71876 16.4658C7.99225 16.1923 8.36319 16.0387 8.74996 16.0387H16.0416V8.74703C16.0416 8.36026 16.1953 7.98932 16.4688 7.71583C16.7423 7.44234 17.1132 7.2887 17.5 7.2887C17.8867 7.2887 18.2577 7.44234 18.5312 7.71583C18.8046 7.98932 18.9583 8.36026 18.9583 8.74703V16.0387H26.25C26.6367 16.0387 27.0077 16.1923 27.2812 16.4658C27.5546 16.7393 27.7083 17.1103 27.7083 17.497C27.7083 17.8838 27.5546 18.2547 27.2812 18.5282C27.0077 18.8017 26.6367 18.9554 26.25 18.9554Z" fill="#1E1E1E"/>
</svg>
