<svg width="45" height="35" viewBox="0 0 21 35" fill="none" xmlns="http://www.w3.org/2000/svg">
<path d="M14.5834 2.91663C13.7084 2.91663 13.125 3.49996 13.125 4.37496V30.625C13.125 31.5 13.7084 32.0833 14.5834 32.0833C15.4584 32.0833 16.0417 31.5 16.0417 30.625V4.37496C16.0417 3.49996 15.4584 2.91663 14.5834 2.91663ZM7.29171 17.5C6.41671 17.5 5.83337 18.0833 5.83337 18.9583V30.625C5.83337 31.5 6.41671 32.0833 7.29171 32.0833C8.16671 32.0833 8.75004 31.5 8.75004 30.625V18.9583C8.75004 18.0833 8.16671 17.5 7.29171 17.5ZM21.875 11.6666C21 11.6666 20.4167 12.25 20.4167 13.125V30.625C20.4167 31.5 21 32.0833 21.875 32.0833C22.75 32.0833 23.3334 31.5 23.3334 30.625V13.125C23.3334 12.25 22.75 11.6666 21.875 11.6666ZM29.1667 23.3333C28.2917 23.3333 27.7084 23.9166 27.7084 24.7916V30.625C27.7084 31.5 28.2917 32.0833 29.1667 32.0833C30.0417 32.0833 30.625 31.5 30.625 30.625V24.7916C30.625 23.9166 30.0417 23.3333 29.1667 23.3333Z" fill="black"/>
</svg>
