<svg width="30" height="30" viewBox="0 0 30 30" fill="none" xmlns="http://www.w3.org/2000/svg">
<path d="M6.87501 25C6.87501 25.1783 6.81501 25.3271 6.69501 25.4463C6.57501 25.5654 6.42667 25.625 6.25001 25.625H2.88501C2.59917 25.625 2.35917 25.5283 2.16501 25.335C1.97084 25.1417 1.87417 24.9017 1.87501 24.615V21.25C1.87501 21.0725 1.93501 20.9242 2.05501 20.805C2.17501 20.6858 2.32376 20.6258 2.50126 20.625C2.67876 20.6242 2.82709 20.6842 2.94626 20.805C3.06542 20.9258 3.12501 21.0742 3.12501 21.25V24.375H6.25001C6.42751 24.375 6.57584 24.435 6.69501 24.555C6.81417 24.675 6.87417 24.8225 6.87501 25ZM27.5 20.625C27.6783 20.625 27.8271 20.685 27.9463 20.805C28.0654 20.925 28.125 21.0733 28.125 21.25V24.615C28.125 24.9017 28.0283 25.1417 27.835 25.335C27.6417 25.5283 27.4017 25.625 27.115 25.625H23.75C23.5725 25.625 23.4242 25.565 23.305 25.445C23.1858 25.325 23.1258 25.1763 23.125 24.9988C23.1242 24.8213 23.1842 24.6729 23.305 24.5538C23.4258 24.4346 23.5742 24.375 23.75 24.375H26.875V21.25C26.875 21.0725 26.935 20.9242 27.055 20.805C27.175 20.6858 27.3225 20.6258 27.5 20.625ZM5.50501 22.5C5.37001 22.5 5.25209 22.4496 5.15126 22.3488C5.05042 22.2479 5.00001 22.13 5.00001 21.995V8.00501C5.00001 7.87001 5.05042 7.75209 5.15126 7.65126C5.25209 7.55042 5.37001 7.50001 5.50501 7.50001H6.99501C7.13001 7.50001 7.24792 7.55042 7.34876 7.65126C7.44959 7.75209 7.50001 7.87001 7.50001 8.00501V21.995C7.50001 22.13 7.44959 22.2479 7.34876 22.3488C7.24792 22.4496 7.13001 22.5 6.99501 22.5H5.50501ZM9.37501 22.5C9.20834 22.5 9.06251 22.4375 8.93751 22.3125C8.81251 22.1875 8.75001 22.0417 8.75001 21.875V8.12501C8.75001 7.95834 8.81251 7.81251 8.93751 7.68751C9.06251 7.56251 9.20834 7.50001 9.37501 7.50001C9.54167 7.50001 9.68751 7.56251 9.81251 7.68751C9.93751 7.81251 10 7.95834 10 8.12501V21.875C10 22.0417 9.93751 22.1875 9.81251 22.3125C9.68751 22.4375 9.54167 22.5 9.37501 22.5ZM13.005 22.5C12.87 22.5 12.7521 22.4496 12.6513 22.3488C12.5504 22.2479 12.5 22.13 12.5 21.995V8.00501C12.5 7.87001 12.5504 7.75209 12.6513 7.65126C12.7521 7.55042 12.87 7.50001 13.005 7.50001H14.495C14.63 7.50001 14.7479 7.55042 14.8488 7.65126C14.9496 7.75209 15 7.87001 15 8.00501V21.995C15 22.13 14.9496 22.2479 14.8488 22.3488C14.7479 22.4496 14.63 22.5 14.495 22.5H13.005ZM16.755 22.5C16.62 22.5 16.5021 22.4496 16.4013 22.3488C16.3004 22.2479 16.25 22.13 16.25 21.995V8.00501C16.25 7.87001 16.3004 7.75209 16.4013 7.65126C16.5021 7.55042 16.62 7.50001 16.755 7.50001H19.495C19.63 7.50001 19.7479 7.55042 19.8488 7.65126C19.9496 7.75209 20 7.87001 20 8.00501V21.995C20 22.13 19.9496 22.2479 19.8488 22.3488C19.7479 22.4496 19.63 22.5 19.495 22.5H16.755ZM21.875 22.5C21.7083 22.5 21.5625 22.4375 21.4375 22.3125C21.3125 22.1875 21.25 22.0417 21.25 21.875V8.12501C21.25 7.95834 21.3125 7.81251 21.4375 7.68751C21.5625 7.56251 21.7083 7.50001 21.875 7.50001C22.0417 7.50001 22.1875 7.56251 22.3125 7.68751C22.4375 7.81251 22.5 7.95834 22.5 8.12501V21.875C22.5 22.0417 22.4375 22.1875 22.3125 22.3125C22.1875 22.4375 22.0417 22.5 21.875 22.5ZM24.375 22.5C24.2083 22.5 24.0625 22.4375 23.9375 22.3125C23.8125 22.1875 23.75 22.0417 23.75 21.875V8.12501C23.75 7.95834 23.8125 7.81251 23.9375 7.68751C24.0625 7.56251 24.2083 7.50001 24.375 7.50001C24.5417 7.50001 24.6875 7.56251 24.8125 7.68751C24.9375 7.81251 25 7.95834 25 8.12501V21.875C25 22.0417 24.9375 22.1875 24.8125 22.3125C24.6875 22.4375 24.5417 22.5 24.375 22.5ZM6.87501 5.00001C6.87501 5.17834 6.81501 5.32709 6.69501 5.44626C6.57501 5.56542 6.42667 5.62501 6.25001 5.62501H3.12501V8.75001C3.12501 8.92751 3.06501 9.07584 2.94501 9.19501C2.82501 9.31417 2.67626 9.37417 2.49876 9.37501C2.32126 9.37584 2.17292 9.31584 2.05376 9.19501C1.93459 9.07417 1.87501 8.92584 1.87501 8.75001V5.38501C1.87501 5.09917 1.97167 4.85917 2.16501 4.66501C2.35834 4.47084 2.59834 4.37417 2.88501 4.37501H6.25001C6.42751 4.37501 6.57584 4.43501 6.69501 4.55501C6.81417 4.67501 6.87417 4.82251 6.87501 5.00001ZM23.125 4.99876C23.125 4.82126 23.185 4.67292 23.305 4.55376C23.425 4.43459 23.5733 4.37501 23.75 4.37501H27.115C27.4017 4.37501 27.6417 4.47167 27.835 4.66501C28.0283 4.85834 28.125 5.09834 28.125 5.38501V8.75001C28.125 8.92751 28.065 9.07584 27.945 9.19501C27.825 9.31417 27.6763 9.37417 27.4988 9.37501C27.3213 9.37584 27.1729 9.31584 27.0538 9.19501C26.9346 9.07417 26.875 8.92584 26.875 8.75001V5.62501H23.75C23.5725 5.62501 23.4242 5.56501 23.305 5.44501C23.1858 5.32501 23.1258 5.17626 23.125 4.99876Z" fill="#858585"/>
</svg>
