<svg width="35" height="35" viewBox="0 0 35 35" fill="none" xmlns="http://www.w3.org/2000/svg">
<path d="M17.5 30.625C14.4375 30.625 11.7274 29.6956 9.36979 27.8367C7.01215 25.9778 5.4809 23.6017 4.77604 20.7083C4.67882 20.3438 4.75174 20.0098 4.99479 19.7065C5.23785 19.4031 5.56597 19.2267 5.97917 19.1771C6.36806 19.1285 6.72049 19.2014 7.03646 19.3958C7.35243 19.5903 7.57118 19.8819 7.69271 20.2708C8.27604 22.4583 9.47917 24.2448 11.3021 25.6302C13.125 27.0156 15.191 27.7083 17.5 27.7083C20.3438 27.7083 22.7563 26.7181 24.7377 24.7377C26.7191 22.7573 27.7093 20.3447 27.7083 17.5C27.7074 14.6553 26.7172 12.2432 24.7377 10.2638C22.7583 8.28431 20.3457 7.29361 17.5 7.29167C15.8229 7.29167 14.2552 7.68056 12.7969 8.45833C11.3385 9.23611 10.1111 10.3056 9.11458 11.6667H11.6667C12.0799 11.6667 12.4265 11.8067 12.7065 12.0867C12.9865 12.3667 13.126 12.7128 13.125 13.125C13.124 13.5372 12.984 13.8838 12.705 14.1648C12.426 14.4458 12.0799 14.5853 11.6667 14.5833H5.83333C5.42014 14.5833 5.07403 14.4433 4.795 14.1633C4.51597 13.8833 4.37597 13.5372 4.375 13.125V7.29167C4.375 6.87847 4.515 6.53236 4.795 6.25333C5.075 5.97431 5.42111 5.83431 5.83333 5.83333C6.24556 5.83236 6.59215 5.97236 6.87312 6.25333C7.1541 6.53431 7.29361 6.88042 7.29167 7.29167V9.26042C8.53125 7.70486 10.0445 6.50174 11.8315 5.65104C13.6184 4.80035 15.5079 4.375 17.5 4.375C19.3229 4.375 21.0306 4.7216 22.6231 5.41479C24.2156 6.10799 25.601 7.04326 26.7794 8.22063C27.9577 9.39799 28.8935 10.7834 29.5867 12.3769C30.2799 13.9703 30.626 15.6781 30.625 17.5C30.624 19.3219 30.2779 21.0297 29.5867 22.6231C28.8954 24.2166 27.9597 25.602 26.7794 26.7794C25.5991 27.9567 24.2137 28.8925 22.6231 29.5867C21.0326 30.2808 19.3249 30.6269 17.5 30.625ZM18.9583 16.9167L22.6042 20.5625C22.8715 20.8299 23.0052 21.1701 23.0052 21.5833C23.0052 21.9965 22.8715 22.3368 22.6042 22.6042C22.3368 22.8715 21.9965 23.0052 21.5833 23.0052C21.1701 23.0052 20.8299 22.8715 20.5625 22.6042L16.4792 18.5208C16.3333 18.375 16.224 18.2112 16.151 18.0294C16.0781 17.8476 16.0417 17.659 16.0417 17.4635V11.6667C16.0417 11.2535 16.1817 10.9074 16.4617 10.6283C16.7417 10.3493 17.0878 10.2093 17.5 10.2083C17.9122 10.2074 18.2588 10.3474 18.5398 10.6283C18.8208 10.9093 18.9603 11.2554 18.9583 11.6667V16.9167Z" fill="black"/>
</svg>
