<svg
  width="33"
  height="33"
  viewBox="0 0 33 33"
  fill="none"
  xmlns="http://www.w3.org/2000/svg"
>
  <path
    d="M16.5 33C18.0146 33 19.4756 32.8066 20.8828 32.4199C22.29 32.0332 23.606 31.48 24.8306 30.7603C26.0552 30.0405 27.167 29.1812 28.166 28.1821C29.165 27.1831 30.0244 26.0659 30.7441 24.8306C31.4639 23.5952 32.0171 22.2793 32.4038 20.8828C32.7905 19.4863 32.9893 18.0254 33 16.5C33 14.9854 32.8066 13.5244 32.4199 12.1172C32.0332 10.71 31.48 9.39404 30.7603 8.16943C30.0405 6.94482 29.1812 5.83301 28.1821 4.83398C27.1831 3.83496 26.0659 2.97559 24.8306 2.25586C23.5952 1.53613 22.2793 0.98291 20.8828 0.596191C19.4863 0.209473 18.0254 0.0107422 16.5 0C14.9854 0 13.5244 0.193359 12.1172 0.580078C10.71 0.966797 9.39404 1.52002 8.16943 2.23975C6.94482 2.95947 5.83301 3.81885 4.83398 4.81787C3.83496 5.81689 2.97559 6.93408 2.25586 8.16943C1.53613 9.40479 0.98291 10.7153 0.596191 12.1011C0.209473 13.4868 0.0107422 14.9531 0 16.5C0 18.0146 0.193359 19.4756 0.580078 20.8828C0.966797 22.29 1.52002 23.606 2.23975 24.8306C2.95947 26.0552 3.81885 27.167 4.81787 28.166C5.81689 29.165 6.93408 30.0244 8.16943 30.7441C9.40479 31.4639 10.7153 32.0171 12.1011 32.4038C13.4868 32.7905 14.9531 32.9893 16.5 33ZM16.5 2.0625C17.8213 2.0625 19.0942 2.23438 20.3188 2.57812C21.5435 2.92188 22.6929 3.40527 23.7671 4.02832C24.8413 4.65137 25.8188 5.40869 26.6997 6.30029C27.5806 7.19189 28.3325 8.16406 28.9556 9.2168C29.5786 10.2695 30.0674 11.4189 30.4219 12.665C30.7764 13.9111 30.9482 15.1895 30.9375 16.5C30.9375 17.8213 30.7656 19.0942 30.4219 20.3188C30.0781 21.5435 29.5947 22.6929 28.9717 23.7671C28.3486 24.8413 27.5913 25.8188 26.6997 26.6997C25.8081 27.5806 24.8359 28.3325 23.7832 28.9556C22.7305 29.5786 21.5811 30.0674 20.335 30.4219C19.0889 30.7764 17.8105 30.9482 16.5 30.9375C15.1787 30.9375 13.9058 30.7656 12.6812 30.4219C11.4565 30.0781 10.3071 29.5947 9.23291 28.9717C8.15869 28.3486 7.18115 27.5913 6.30029 26.6997C5.41943 25.8081 4.66748 24.8359 4.04443 23.7832C3.42139 22.7305 2.93262 21.5811 2.57812 20.335C2.22363 19.0889 2.05176 17.8105 2.0625 16.5C2.0625 15.1787 2.23438 13.9058 2.57812 12.6812C2.92188 11.4565 3.40527 10.3071 4.02832 9.23291C4.65137 8.15869 5.40869 7.18115 6.30029 6.30029C7.19189 5.41943 8.16406 4.66748 9.2168 4.04443C10.2695 3.42139 11.4189 2.93262 12.665 2.57812C13.9111 2.22363 15.1895 2.05176 16.5 2.0625ZM25.0562 18.2563L26.5063 16.8062L16.5161 6.78369L6.49365 16.8062L7.94385 18.2563L15.4849 10.7314L15.4688 26.8125H17.5312L17.5474 10.7476L25.0562 18.2563Z"
    fill="white"
  />
</svg>
