<svg width="31" height="31" viewBox="0 0 31 31" fill="none" xmlns="http://www.w3.org/2000/svg">
<path d="M13.056 2.2068C13.1826 2.26957 13.2938 2.35962 13.3815 2.47048C13.4692 2.58133 13.5312 2.71023 13.5632 2.84792C13.5976 2.99911 14.543 7.04485 14.543 9.7586C14.543 11.5767 13.6971 13.1977 12.3804 14.2483C11.902 14.6311 11.6723 15.0483 11.6723 15.3966V16.3267C11.6723 16.3714 11.6749 16.4135 11.68 16.453C11.7451 16.9276 11.9805 18.6902 12.2005 20.5179C12.4168 22.3111 12.6292 24.267 12.6292 25.0689C12.6292 26.084 12.226 27.0576 11.5082 27.7754C10.7904 28.4932 9.8168 28.8965 8.80166 28.8965C7.78653 28.8965 6.81297 28.4932 6.09516 27.7754C5.37735 27.0576 4.97409 26.084 4.97409 25.0689C4.97409 24.2651 5.18652 22.313 5.40278 20.5179C5.62286 18.6902 5.85826 16.9276 5.92333 16.453L5.93098 16.3267V15.3966C5.93098 15.0483 5.70133 14.6311 5.22288 14.2483C4.54824 13.7106 4.00347 13.0276 3.62907 12.2503C3.25467 11.473 3.06026 10.6214 3.0603 9.7586C3.0603 7.05442 3.99806 3.02973 4.04016 2.84983C4.08991 2.63709 4.21028 2.44749 4.38162 2.31194C4.55297 2.1764 4.76518 2.10291 4.98366 2.10345C5.51952 2.10345 5.95395 2.53788 5.95395 3.07374V8.81128C5.9464 8.94051 5.96543 9.06993 6.00985 9.19153C6.05427 9.31313 6.12314 9.42433 6.21221 9.51828C6.30128 9.61222 6.40866 9.68691 6.52772 9.73774C6.64678 9.78857 6.775 9.81445 6.90446 9.8138C7.03391 9.81314 7.16186 9.78596 7.2804 9.73393C7.39894 9.6819 7.50556 9.60613 7.59368 9.51128C7.6818 9.41644 7.74954 9.30455 7.79272 9.1825C7.83591 9.06046 7.85362 8.93086 7.84477 8.80171V3.06035C7.84477 2.80656 7.94559 2.56317 8.12504 2.38372C8.30449 2.20427 8.54788 2.10345 8.80166 2.10345C9.05545 2.10345 9.29884 2.20427 9.47829 2.38372C9.65774 2.56317 9.75856 2.80656 9.75856 3.06035V8.85147C9.76389 9.10271 9.8688 9.34155 10.0502 9.51544C10.2317 9.68933 10.4747 9.78402 10.726 9.7787C10.9772 9.77337 11.2161 9.66845 11.3899 9.48702C11.5638 9.3056 11.6585 9.06252 11.6532 8.81128V3.06992C11.6532 2.53597 12.0857 2.10345 12.6216 2.10345C12.6637 2.10345 12.8512 2.10345 13.056 2.2068ZM17.4137 10.7155C17.4137 8.43144 18.321 6.24093 19.9361 4.62586C21.5512 3.01079 23.7417 2.10345 26.0257 2.10345C26.2795 2.10345 26.5229 2.20427 26.7024 2.38372C26.8818 2.56317 26.9826 2.80656 26.9826 3.06035V14.4914L27.019 14.8301C27.1712 16.2585 27.3173 17.6874 27.4573 19.117C27.6927 21.5207 27.9395 24.2153 27.9395 25.0689C27.9395 26.084 27.5363 27.0576 26.8185 27.7754C26.1007 28.4932 25.1271 28.8965 24.112 28.8965C23.0968 28.8965 22.1233 28.4932 21.4055 27.7754C20.6876 27.0576 20.2844 26.084 20.2844 25.0689C20.2844 24.2153 20.5313 21.5207 20.7667 19.117C20.8872 17.8979 21.0078 16.7305 21.0977 15.8655L21.136 15.5H19.3275C18.8199 15.5 18.3331 15.2983 17.9742 14.9394C17.6153 14.5805 17.4137 14.0937 17.4137 13.5862V10.7155Z" fill="black" fill-opacity="0.3"/>
</svg>

